<svg xmlns="http://www.w3.org/2000/svg" width="200" height="200" viewBox="0 0 553.557 553.557">
  <metadata><?xpacket begin="﻿" id="W5M0MpCehiHzreSzNTczkc9d"?>
<x:xmpmeta xmlns:x="adobe:ns:meta/" x:xmptk="Adobe XMP Core 5.6-c140 79.160451, 2017/05/06-01:08:21        ">
   <rdf:RDF xmlns:rdf="http://www.w3.org/1999/02/22-rdf-syntax-ns#">
      <rdf:Description rdf:about=""/>
   </rdf:RDF>
</x:xmpmeta>
                                                                                                    
                                                                                                    
                                                                                                    
                                                                                                    
                                                                                                    
                                                                                                    
                                                                                                    
                                                                                                    
                                                                                                    
                                                                                                    
                                                                                                    
                                                                                                    
                                                                                                    
                                                                                                    
                                                                                                    
                                                                                                    
                                                                                                    
                                                                                                    
                                                                                                    
                                                                                                    
                           
<?xpacket end="w"?></metadata>
<defs>
    <style>
      .cls-1 {
        fill: #2d3134;
        fill-rule: evenodd;
      }
    </style>
  </defs>
  <path id="椭圆_4" data-name="椭圆 4" class="cls-1" d="M301.5,562H301.5C170.469,562,64.25,455.781,64.25,324.753V50.213L64.5,50,183,149.824,301.5,50,420,149.824,538.5,50l0.25,0.211v274.54C538.75,455.781,432.531,562,301.5,562ZM211.219,265.607a62.016,62.016,0,1,0,62.218,62.015A62.117,62.117,0,0,0,211.219,265.607ZM321,443a13,13,0,0,1-13-13H295a13,13,0,1,1-13-13V406a24,24,0,1,0,19.5,37.983A24,24,0,1,0,321,406v11A13,13,0,0,1,321,443Zm70.219-177.406a62.016,62.016,0,1,0,62.218,62.015A62.117,62.117,0,0,0,391.219,265.594Z" transform="translate(-24.722 -29.222)"/>
</svg>
